<svg width="12" height="22" viewBox="0 0 12 22" fill="none" xmlns="http://www.w3.org/2000/svg">
<path d="M11.7075 11.7074L1.70751 21.7074C1.6146 21.8004 1.5043 21.8741 1.3829 21.9243C1.26151 21.9746 1.1314 22.0005 1.00001 22.0005C0.868612 22.0005 0.738503 21.9746 0.61711 21.9243C0.495717 21.8741 0.385416 21.8004 0.292506 21.7074C0.199596 21.6145 0.125896 21.5042 0.075613 21.3828C0.0253304 21.2614 -0.000549316 21.1313 -0.000549316 20.9999C-0.000549316 20.8686 0.0253304 20.7384 0.075613 20.6171C0.125896 20.4957 0.199596 20.3854 0.292506 20.2924L9.58626 10.9999L0.292506 1.70745C0.104866 1.5198 -0.000549318 1.26531 -0.000549316 0.999946C-0.000549314 0.734582 0.104866 0.480086 0.292506 0.292446C0.480147 0.104805 0.734643 -0.00061035 1.00001 -0.000610352C1.26537 -0.000610354 1.51987 0.104805 1.70751 0.292446L11.7075 10.2924C11.8005 10.3853 11.8742 10.4956 11.9246 10.617C11.9749 10.7384 12.0008 10.8685 12.0008 10.9999C12.0008 11.1314 11.9749 11.2615 11.9246 11.3829C11.8742 11.5043 11.8005 11.6146 11.7075 11.7074Z" fill="#343330"/>
</svg>
