<svg width="12" height="22" viewBox="0 0 12 22" fill="none" xmlns="http://www.w3.org/2000/svg">
<path d="M11.7075 20.2924C11.8004 20.3854 11.8741 20.4957 11.9244 20.6171C11.9747 20.7384 12.0006 20.8686 12.0006 20.9999C12.0006 21.1313 11.9747 21.2614 11.9244 21.3828C11.8741 21.5042 11.8004 21.6145 11.7075 21.7074C11.6146 21.8004 11.5043 21.8741 11.3829 21.9243C11.2615 21.9746 11.1314 22.0005 11 22.0005C10.8686 22.0005 10.7385 21.9746 10.6171 21.9243C10.4957 21.8741 10.3854 21.8004 10.2925 21.7074L0.292493 11.7074C0.199516 11.6146 0.125758 11.5043 0.0754337 11.3829C0.0251094 11.2615 -0.000793457 11.1314 -0.000793457 10.9999C-0.000793457 10.8685 0.0251094 10.7384 0.0754337 10.617C0.125758 10.4956 0.199516 10.3853 0.292493 10.2924L10.2925 0.292446C10.4801 0.104805 10.7346 -0.000610357 11 -0.000610352C11.2654 -0.000610346 11.5199 0.104805 11.7075 0.292446C11.8951 0.480086 12.0006 0.734582 12.0006 0.999946C12.0006 1.26531 11.8951 1.5198 11.7075 1.70745L2.41374 10.9999L11.7075 20.2924Z" fill="#343330"/>
</svg>
