<svg width="20" height="19" viewBox="0 0 20 19" fill="none" xmlns="http://www.w3.org/2000/svg">
<path d="M9.26775 1.05759L9.4981 1.22476C9.80176 1.44479 10.2115 1.44041 10.5105 1.21395C12.0678 0.0343902 14.0832 -0.308859 15.9295 0.290423C19.2615 1.37576 20.7778 5.11707 19.6089 8.79074C18.9749 10.6385 17.9254 12.33 16.5472 13.7172L15.929 14.3114C14.2632 15.8776 12.4619 17.2954 10.5493 18.5448L10.0015 18.8934L10.1686 19C7.75241 17.4967 5.49639 15.7209 3.44973 13.7099C2.07887 12.33 1.02941 10.6385 0.389281 8.77222C-0.77459 5.11357 0.735155 1.3749 4.06529 0.290149C5.82373 -0.282126 7.74079 0.00160646 9.26775 1.05759Z" fill="#FE3A30"/>
<path d="M14.0349 3.0086C14.1578 2.62415 14.5693 2.41204 14.9541 2.53485C16.2756 2.95662 17.2126 4.1397 17.3296 5.52964C17.3634 5.93181 17.0646 6.28524 16.662 6.31905C16.2595 6.35286 15.9058 6.05424 15.872 5.65207C15.8044 4.84914 15.2653 4.16846 14.509 3.92708C14.1242 3.80427 13.912 3.39305 14.0349 3.0086Z" fill="white"/>
</svg>
