<svg width="38" height="32" viewBox="0 0 38 32" fill="none" xmlns="http://www.w3.org/2000/svg">
<path d="M20.3872 31.4871L13.2755 31.4872C12.9373 31.4872 12.4614 31.534 12.1401 31.4286C10.2813 30.8186 10.2006 29.8636 9.74437 28.1089C9.40898 26.8187 9.26025 26.4496 9.65283 25.0411L9.86259 24.1835C9.89367 24.0445 9.94397 23.8924 9.94955 23.7504L9.87956 18.3636L8.21686 22.4687C7.73705 23.7009 7.29216 24.9037 6.50044 25.975C6.12759 26.4794 5.70998 26.9601 5.39409 27.5038C4.95366 28.2619 4.90298 29.24 4.03547 29.6796L4.00411 29.695C3.37702 30.0077 2.93892 29.7937 2.33559 29.6062C0.993985 29.1892 0.273516 28.6727 0.269531 27.063L0.269625 25.396C0.272156 24.5551 0.510562 23.6837 0.777469 22.8926L4.70077 12.6058C5.11148 11.5097 5.50833 10.5182 5.78245 9.3802C6.35269 7.01301 7.78172 5.37557 10.2872 4.97076C10.775 4.89196 11.262 4.89726 11.7496 4.84776C11.4065 4.54274 11.1383 4.14332 11.0777 3.68039L11.0585 3.51445C10.9617 1.78354 13.1066 1.56829 14.2539 1.2329C14.4669 1.1706 14.6617 0.997167 14.8793 0.919308C15.6893 0.629667 16.59 0.497995 17.4479 0.468229C19.0586 0.431948 21.9596 0.335526 23.4336 1.0357C23.611 1.11993 23.7255 1.25034 23.9245 1.29192C25.1667 1.55146 26.7236 1.85114 26.9302 3.34992C27.0118 3.94143 26.6813 4.37451 26.338 4.81424C26.5828 4.85756 26.8329 4.85953 27.0799 4.88718C29.4231 5.1494 31.1363 6.21234 31.9834 8.52342C32.1867 9.07804 32.2297 9.68864 32.4207 10.2406L37.3535 23.2656L37.6104 24.25C37.7732 25.0577 37.7288 25.9444 37.728 26.7628C37.7262 28.4419 37.3654 29.0996 35.7153 29.622C35.2823 29.7592 34.8318 29.9542 34.372 29.8166L34.1407 29.7405C33.1444 29.3531 33.0615 28.2977 32.5813 27.4763C32.035 26.5416 31.2609 25.7609 30.7579 24.7959C30.3569 24.0265 30.0855 23.1982 29.7691 22.3922L28.1259 18.3547L28.0979 18.5547C28.0635 18.7904 28.0781 19.0393 28.0752 19.2774L28.0002 22.9096C28.0016 23.7465 28.1509 24.4586 28.4062 25.252C28.5703 25.7624 28.6391 26.4677 28.5265 27.0011L28.1243 28.9023C27.7059 30.5314 26.8399 31.4764 25.1407 31.4837L20.3872 31.4871ZM18.6037 1.90818C17.6008 1.90973 16.2013 1.87715 15.2826 2.31904C15.3618 2.47035 15.4748 2.57292 15.5745 2.70749C16.4908 3.94307 17.6569 5.12268 18.976 5.9219C19.0408 5.8822 19.1153 5.84493 19.1753 5.79899C20.1674 5.11556 22.2149 3.48745 22.6344 2.29406C22.2386 2.17509 21.8382 2.09592 21.4288 2.0421L20.7522 1.96523C20.0609 1.8547 19.3038 1.90617 18.6037 1.90818ZM23.9961 2.79314C23.5425 3.77985 23.0287 4.2126 22.4437 5.00418L23.6116 4.62609C24.1676 4.40353 26.5962 3.57482 24.9026 3.02714L23.9961 2.79314ZM13.8686 2.83982C13.418 2.93535 12.9153 3.04443 12.5196 3.28776C12.2936 3.75989 13.5163 4.20918 13.7972 4.31498L14.5876 4.59956L15.6465 4.94882C15.0278 4.30054 14.3682 3.63004 13.9492 2.82867L13.8686 2.83982ZM11.4003 6.32634C10.0701 6.41432 9.00089 6.69243 8.06981 7.73329C7.28311 8.61276 6.97495 10.526 6.53311 11.7712L3.33938 20.1719C2.81273 21.5407 2.20486 22.8959 1.84434 24.3203C1.73864 24.738 1.59328 27.4498 1.81458 27.8162L1.83347 27.8496C1.9793 28.045 3.09455 28.3473 3.42933 28.4221C3.7328 27.7154 4.00064 27.0267 4.42772 26.3809C4.92314 25.6319 5.53453 24.9661 5.96095 24.1705C6.35967 23.4267 6.63684 22.6201 6.94772 21.8372L9.11255 16.4687C9.5092 15.5385 9.96197 14.5988 10.0604 13.5815C10.0963 13.2114 10.093 12.854 10.5112 12.695C11.0995 12.4713 11.3952 12.8931 11.3886 13.4314L11.374 17.0547C11.371 17.2156 11.3392 17.3697 11.3306 17.529L11.33 19.064C11.3391 19.2414 11.3682 19.4148 11.3726 19.5934L11.3796 21.6944L11.385 23.109C11.3902 23.8011 11.3612 24.2287 11.1868 24.9009C11.1472 25.0536 11.052 25.2507 11.058 25.4051C12.5937 24.6248 13.8531 23.2304 14.3894 21.5888C14.5531 21.0878 14.6933 20.3439 15.415 20.5632L15.4523 20.5742C16.2249 20.8132 15.8451 21.7427 15.6477 22.2695C14.9028 24.257 13.4085 25.8452 11.5235 26.785C10.7753 27.158 10.9395 26.9422 11.1684 27.8262C11.5415 29.2673 11.3388 30.0344 13.2471 30.0344L18.2557 30.0261L18.2492 7.10765C16.851 6.9651 15.4909 6.62287 14.1016 6.43724L13.6244 6.39346C12.8772 6.30651 12.153 6.3246 11.4003 6.32634ZM24.5236 6.32606C23.8736 6.36773 23.2549 6.53057 22.62 6.6591C21.6684 6.85171 20.699 7.03354 19.7296 7.09739L19.7254 30.0467L24.8299 30.0307C26.2894 30.0284 26.47 29.5879 26.7795 28.2905L27.0762 27.0859C24.8538 25.9733 23.1359 24.6744 22.2996 22.1725C22.1845 21.8283 21.9639 21.2504 22.1403 20.9119C22.4129 20.3889 23.1607 20.4139 23.4057 20.957L23.4235 20.9946C23.6287 21.4447 23.6932 21.9835 23.9723 22.5156C24.6072 23.7259 25.7649 24.7921 26.976 25.4131C26.7283 24.6197 26.5954 24.0536 26.5954 23.2311L26.5981 22.1243C26.6001 21.6102 26.5233 20.1944 26.6791 19.7518L26.7083 15.1148C26.7055 14.5619 26.5888 14.0019 26.62 13.4535C26.6603 12.7447 27.6725 12.5107 27.9285 13.2461L27.944 13.2851C28.0199 13.4915 27.9702 13.7895 27.9941 14.0105C28.025 14.2953 28.1258 14.5713 28.2239 14.8379L31.3043 22.4336C31.8714 24.078 32.3208 24.6162 33.2927 25.9726C33.7848 26.6594 34.1801 27.4103 34.4797 28.1999C34.6262 28.5859 34.9616 28.3074 35.3132 28.1982C36.0267 27.9765 36.2665 28.0627 36.269 27.2579L36.2701 26.5598C36.2713 24.5039 36.2548 24.2489 35.5082 22.3227L31.8205 12.7026C31.5593 12.0034 31.2679 11.301 31.0554 10.5857C30.861 9.93131 30.7861 9.25935 30.4926 8.63428C29.3077 6.11128 26.9346 6.32268 24.5236 6.32606Z" fill="black"/>
</svg>
