<svg width="24" height="26" viewBox="0 0 24 26" fill="none" xmlns="http://www.w3.org/2000/svg">
<path d="M23.985 23.75L21.235 1.75C21.174 1.26657 20.9388 0.821998 20.5733 0.499773C20.2078 0.177548 19.7372 -0.000167132 19.25 1.17944e-07H4.74995C4.2627 -0.000167132 3.79215 0.177548 3.42665 0.499773C3.06115 0.821998 2.82586 1.26657 2.76495 1.75L0.0149543 23.75C-0.0205218 24.0316 0.00433747 24.3175 0.0878803 24.5887C0.171423 24.86 0.311736 25.1103 0.499495 25.3231C0.687253 25.536 0.918157 25.7064 1.17686 25.8231C1.43557 25.9398 1.71615 26.0001 1.99995 26H7.0862C7.53098 26.0001 7.96309 25.8519 8.31421 25.5789C8.66533 25.3059 8.91543 24.9236 9.02495 24.4925L12 12.9925L14.9737 24.485C15.0819 24.9177 15.3315 25.3018 15.683 25.5763C16.0345 25.8508 16.4677 25.9999 16.9137 26H22C22.2838 26.0001 22.5643 25.9398 22.823 25.8231C23.0818 25.7064 23.3127 25.536 23.5004 25.3231C23.6882 25.1103 23.8285 24.86 23.912 24.5887C23.9956 24.3175 24.0204 24.0316 23.985 23.75ZM20.1125 8.9C19.397 8.73578 18.7403 8.37863 18.2136 7.86736C17.6869 7.35608 17.3104 6.71024 17.125 6H19.75L20.1125 8.9ZM19.25 2L19.5 4H4.49995L4.74995 2H19.25ZM4.24995 6H6.87495C6.68955 6.71024 6.31304 7.35608 5.78634 7.86736C5.25964 8.37863 4.60289 8.73578 3.88745 8.9L4.24995 6ZM7.0862 24H1.99995L3.62495 10.9663C4.92742 10.828 6.14906 10.268 7.10397 9.37151C8.05889 8.47504 8.69481 7.29115 8.91495 6H11V8.875L7.0862 24ZM16.9112 23.9925L13 8.875V6H15.085C15.3051 7.29115 15.941 8.47504 16.8959 9.37151C17.8509 10.268 19.0725 10.828 20.375 10.9663L22 24L16.9112 23.9925Z" fill="#343330"/>
</svg>
