<svg width="29" height="22" viewBox="0 0 29 22" fill="none" xmlns="http://www.w3.org/2000/svg">
<path d="M25.5812 12.1388L17.99 9.6088C17.5952 9.47693 17.2322 9.26435 16.9241 8.98459C16.6159 8.70483 16.3693 8.36401 16.2 7.9838L13.2987 1.20005C13.2987 1.20005 13.2987 1.1913 13.2987 1.18755C13.0922 0.724165 12.7172 0.356614 12.2497 0.159338C11.7823 -0.0379389 11.2574 -0.0501953 10.7812 0.125051L1.31625 3.5613C0.930914 3.70244 0.598126 3.95834 0.362765 4.29451C0.127404 4.63068 0.000790397 5.03093 0 5.4413V20.0001C0 20.5305 0.210714 21.0392 0.585786 21.4143C0.960859 21.7893 1.46957 22.0001 2 22.0001H27C27.5304 22.0001 28.0391 21.7893 28.4142 21.4143C28.7893 21.0392 29 20.5305 29 20.0001V16.8826C29.0001 15.8331 28.6699 14.8102 28.0564 13.9588C27.4428 13.1074 26.5768 12.4707 25.5812 12.1388ZM11.465 2.00005L12.3538 4.0788L9.65875 5.06005C9.43767 5.14029 9.25195 5.29588 9.13423 5.49948C9.0165 5.70308 8.9743 5.94166 9.01505 6.17329C9.05579 6.40492 9.17687 6.61478 9.35701 6.76599C9.53715 6.91719 9.76481 7.00007 10 7.00005C10.1165 6.99989 10.232 6.97916 10.3413 6.9388L13.1413 5.9213L13.7337 7.30505L11.6587 8.05505C11.4341 8.13274 11.2444 8.28793 11.1238 8.4928C11.0032 8.69766 10.9595 8.9388 11.0006 9.17297C11.0416 9.40713 11.1648 9.61899 11.348 9.77056C11.5311 9.92213 11.7623 10.0035 12 10.0001C12.1165 9.99989 12.232 9.97916 12.3413 9.9388L14.5413 9.1388C14.7936 9.60332 15.1176 10.0252 15.5012 10.3888L13.6588 11.0588C13.4368 11.1384 13.2501 11.2939 13.1317 11.4978C13.0133 11.7017 12.9707 11.9409 13.0115 12.1732C13.0524 12.4054 13.174 12.6158 13.3548 12.7671C13.5357 12.9184 13.7642 13.0009 14 13.0001C14.1163 12.9997 14.2318 12.9794 14.3412 12.9401L17.8412 11.6676L24.95 14.0363C25.4026 14.1876 25.8125 14.4447 26.1458 14.7863C26.4791 15.1278 26.726 15.5439 26.8662 16.0001H2V5.4413L11.465 2.00005ZM2 20.0001V18.0001H27V20.0001H2Z" fill="#343330"/>
</svg>
