<svg width="32" height="24" viewBox="0 0 32 24" fill="none" xmlns="http://www.w3.org/2000/svg">
<path d="M30.9487 3.6525L24.4787 0.125C24.3322 0.043887 24.1675 0.000904577 24 0H20C19.7348 0 19.4804 0.105357 19.2929 0.292893C19.1054 0.48043 19 0.734784 19 1C19 1.79565 18.6839 2.55871 18.1213 3.12132C17.5587 3.68393 16.7956 4 16 4C15.2043 4 14.4413 3.68393 13.8787 3.12132C13.3161 2.55871 13 1.79565 13 1C13 0.734784 12.8946 0.48043 12.7071 0.292893C12.5196 0.105357 12.2652 0 12 0H8C7.83204 0.000695085 7.66696 0.0436841 7.52 0.125L1.05125 3.6525C0.590125 3.89619 0.244456 4.3128 0.0900368 4.81097C-0.0643825 5.30914 -0.0149487 5.84822 0.227499 6.31L2.63625 10.9113C2.81139 11.2421 3.07392 11.5185 3.39526 11.7105C3.7166 11.9024 4.08444 12.0026 4.45875 12H7V22C7 22.5304 7.21071 23.0391 7.58579 23.4142C7.96086 23.7893 8.46957 24 9 24H23C23.5304 24 24.0391 23.7893 24.4142 23.4142C24.7893 23.0391 25 22.5304 25 22V12H27.5425C27.9168 12.0026 28.2846 11.9024 28.606 11.7105C28.9273 11.5185 29.1899 11.2421 29.365 10.9113L31.7737 6.31C32.0161 5.84807 32.0653 5.30887 31.9107 4.81068C31.756 4.31249 31.4101 3.89598 30.9487 3.6525ZM4.45875 10C4.44027 10.0009 4.4221 9.99511 4.4075 9.98375L2.01125 5.4075L7 2.685V10H4.45875ZM23 22H9V2H11.1C11.3307 3.12895 11.9443 4.14356 12.8369 4.87222C13.7296 5.60089 14.8465 5.99888 15.9987 5.99888C17.151 5.99888 18.2679 5.60089 19.1606 4.87222C20.0532 4.14356 20.6668 3.12895 20.8975 2H23V22ZM27.5937 9.9825C27.5868 9.98874 27.5787 9.9935 27.5699 9.99651C27.5611 9.99952 27.5518 10.0007 27.5425 10H25V2.685L29.99 5.4075L27.5937 9.9825Z" fill="#343330"/>
</svg>
